<svg xmlns="http://www.w3.org/2000/svg" viewBox="0 0 187.12 258"><defs><style>.cls-1{fill:#7baf3f;}</style></defs><title>logo_verde</title><g id="Camada_2" data-name="Camada 2"><g id="Camada_2-2" data-name="Camada 2"><path class="cls-1" d="M50.34,39.92,45.27,32l1.25-.8,5.06,7.91Zm10.31-5.54a3.61,3.61,0,0,0,1.88-2l-1.3-.59a2.29,2.29,0,0,1-1.16,1.3c-1.31.61-3-.26-3.77-1.92s-.35-3.53,1-4.13A2.22,2.22,0,0,1,59,27l.39-1.38a3.64,3.64,0,0,0-2.72.15h0c-2.3,1.06-2.69,3.92-1.72,6S58.35,35.44,60.65,34.38ZM43,45.44l-2.46-2.93,2.06-1.73-.89-1.06-2.06,1.72-1.78-2.12,2.32-2-.9-1.07-3.45,2.89,6,7.2Zm27-14.69-2.8-9-1.41.44,2.8,9ZM28.66,62.81,22.77,59.3a19,19,0,0,1,7.33,1.09l.76-1.27-8.07-4.8L22,55.59,26,58a24.07,24.07,0,0,0-5.43,0l-.76,1.27,8.07,4.8Zm-3.29,6.67L24.07,69,23,72l-2.29-.84,1-2.62L20.35,68l-1,2.62-2.61-1,1.08-2.94-1.32-.48L15,70.59l8.82,3.22ZM174.26,178.89c-.47,2.49-3.14,3.57-5.39,3.15s-4.36-2.4-3.9-4.88,3.13-3.57,5.4-3.15S174.72,176.4,174.26,178.89Zm-4.16-3.43c-1.82-.34-3.5.53-3.77,1.95h0c-.26,1.42,1,2.84,2.81,3.18s3.49-.53,3.75-2S171.91,175.8,170.1,175.46ZM37.54,50.66l-1-.91-2.06,2.36-1.84-1.6,1.83-2.1-1-.91-1.83,2.1-2.09-1.82,2.06-2.36-1.06-.92-3,3.47,7.08,6.16ZM75.27,24.57c-.38-2.27.75-4.92,3.25-5.33h0c2.49-.42,4.42,1.72,4.8,4s-.75,4.91-3.25,5.32S75.64,26.83,75.27,24.57Zm1.45-.24c.31,1.81,1.7,3.1,3.12,2.86s2.33-1.9,2-3.72-1.69-3.1-3.12-2.87S76.42,22.5,76.72,24.33Zm60.52,202.86-4.07-6.89-1.27.75,4.77,8.09,3.81-2.25-.7-1.2ZM157,60.34l7.89-5.08-.8-1.24-7.89,5.08Zm30.08,15.17v107a.86.86,0,0,1,0,.16,76.42,76.42,0,0,1-9.89,29.88,85.21,85.21,0,0,1-20.65,23.89Q129.74,258,93.56,258t-63-21.58A85,85,0,0,1,9.91,212.53,76.28,76.28,0,0,1,0,182.66a1,1,0,0,1,0-.17v-107a.81.81,0,0,1,0-.16,76.28,76.28,0,0,1,9.9-29.88A85,85,0,0,1,30.55,21.58h0Q57.4,0,93.56,0t63,21.58a85.21,85.21,0,0,1,20.65,23.89,76.42,76.42,0,0,1,9.89,29.88A.86.86,0,0,1,187.12,75.51Zm-2.08,0a74.44,74.44,0,0,0-9.63-29,82.94,82.94,0,0,0-20.15-23.31Q129,2.09,93.56,2.09T31.86,23.21A82.94,82.94,0,0,0,11.71,46.52a74.25,74.25,0,0,0-9.62,29V182.46a74.26,74.26,0,0,0,9.62,29,82.94,82.94,0,0,0,20.15,23.31q26.27,21.12,61.7,21.12t61.7-21.12a82.94,82.94,0,0,0,20.15-23.31,74.44,74.44,0,0,0,9.63-29Zm-10.81,3.57c.46,2.49-1.64,4.46-3.9,4.89s-4.92-.66-5.39-3.15,1.63-4.46,3.89-4.88S173.76,76.63,174.23,79.11Zm-5.13-1.69c-1.81.34-3.06,1.75-2.8,3.18s1.95,2.28,3.75,2,3.08-1.76,2.81-3.18S170.92,77.08,169.1,77.42ZM173.56,148V111h0v-.47h-2.08v37h.12v.5Zm-12-78.76a38.48,38.48,0,0,0,9.61-1.4l-.58-1.35a33.73,33.73,0,0,1-7.54,1.31,34,34,0,0,1,6.14-4.56l-.59-1.36a39.46,39.46,0,0,0-7.62,6ZM136.41,38l-2.55-1.5,4.06-6.89-1.27-.75L131.89,37l3.81,2.25ZM111.48,25.64a1.26,1.26,0,1,1,2.45.56l-.81,3.51,1.44.33.81-3.5a2.59,2.59,0,0,0-.44-2.12,2.57,2.57,0,0,0,1.32-1.7l.42-1.82-1.44-.33-.42,1.82a1.26,1.26,0,1,1-2.45-.57l.42-1.82-1.44-.33-.42,1.82a2.57,2.57,0,0,0,.44,2.11A2.59,2.59,0,0,0,110,25.31l-.81,3.51,1.44.33Zm-8.25.85-3.12-.28.21-2.43,2.78.25.12-1.39-2.77-.24.24-2.76,3.12.27.12-1.39-4.59-.41-.82,9.35,4.59.41Zm20.92,6.89a3.7,3.7,0,0,0,2.72,0L126.4,32a2.19,2.19,0,0,1-1.74.05c-1.34-.54-1.86-2.35-1.18-4.06s2.32-2.67,3.66-2.13a2.24,2.24,0,0,1,1.22,1.25l1.27-.66a3.64,3.64,0,0,0-2-1.88h0c-2.35-.94-4.69.73-5.55,2.87S121.8,32.44,124.15,33.38Zm18.73,11.13a2.85,2.85,0,0,0,4-.32h0l4.2-5.13L150,38.13l-4.2,5.12a1.41,1.41,0,0,1-2.18-1.79l4.2-5.12-1.14-.94-4.2,5.13A2.84,2.84,0,0,0,142.88,44.51Zm9.22,163.28a.85.85,0,0,1-.06-1.17.83.83,0,0,1,.92-.23l-.1-1.51a2.36,2.36,0,0,0-1.87.83,2.25,2.25,0,0,0,.17,3.21c2.19,1.91,3.87-1,5.65.53a1.27,1.27,0,0,1,.08,1.76,1.2,1.2,0,0,1-1,.42l.09,1.45a2.73,2.73,0,0,0,2-1,2.67,2.67,0,0,0-.16-3.79C155.42,206.27,153.38,208.91,152.1,207.79Zm-51.41,30.62-.21-2.43,2.78-.25-.13-1.38-2.77.25-.25-2.77,3.13-.27-.13-1.4-4.59.41.82,9.35,4.6-.41-.13-1.38Zm-17.38-3.6c-.37,2.26-2.3,4.4-4.8,4s-3.63-3.06-3.25-5.32,2.31-4.41,4.81-4S83.69,232.54,83.31,234.81Zm-3.47-4c-1.43-.23-2.82,1-3.12,2.87s.59,3.48,2,3.72,2.82-1.05,3.12-2.86S81.26,231.08,79.84,230.84Zm-14,5,1.4.44,2.8-9-1.41-.44Zm90.4-36.88,7.89,5.08.8-1.24-7.89-5.08Zm-41.72,33a2.61,2.61,0,0,0,.44-2.11l-.42-1.82-1.44.33.42,1.82a1.26,1.26,0,1,1-2.45.56l-.42-1.82-1.44.33.42,1.82a2.56,2.56,0,0,0,1.32,1.71,2.53,2.53,0,0,0-.44,2.11l.81,3.51,1.44-.33-.81-3.51a1.26,1.26,0,1,1,2.45-.57l.81,3.51,1.44-.33-.81-3.51A2.57,2.57,0,0,0,114.55,231.92Zm12.6.21c-1.34.54-3-.41-3.65-2.12s-.17-3.54,1.17-4.07a2.27,2.27,0,0,1,1.75.06l.46-1.35a3.6,3.6,0,0,0-2.72,0c-2.35.94-2.89,3.77-2,5.91s3.19,3.8,5.54,2.86a3.62,3.62,0,0,0,2-1.86l-1.27-.66A2.25,2.25,0,0,1,127.15,232.13Zm18-20.43-1.14.94,4.2,5.13a1.41,1.41,0,1,1-2.18,1.78l-4.2-5.12-1.14.94,4.2,5.12a2.89,2.89,0,0,0,4.46-3.66Zm9.41-159.23h0c2.36-2.06,0-4.44,1.31-5.56A.84.84,0,0,1,157.15,48l1.51.1a2.35,2.35,0,0,0-.57-2,2.24,2.24,0,0,0-3.19-.27c-2.2,1.91.48,4-1.3,5.53a1.28,1.28,0,0,1-1.76-.17,1.16,1.16,0,0,1-.27-1.08L150.11,50a2.75,2.75,0,0,0,.68,2.1A2.68,2.68,0,0,0,154.57,52.47ZM12.43,176.64l-.3-1.87,9.26-1.51.3,1.8a2.35,2.35,0,0,1-1.85,2.8,2.18,2.18,0,0,1-1.49-.3A2.93,2.93,0,0,1,16,179.49,3.2,3.2,0,0,1,12.43,176.64Zm6.09-1.42c0,.07,0,.29,0,.35a.93.93,0,0,0,1,.84.9.9,0,0,0,.7-1.12l-.05-.35ZM15.79,178a1.8,1.8,0,0,0,1.42-2.17c0-.12-.07-.31-.1-.42l-3.38.56.07.41A1.78,1.78,0,0,0,15.79,178ZM162,187.81a34.08,34.08,0,0,1,6.14,4.58,35.67,35.67,0,0,1-7.54-1.32l-.58,1.35a39,39,0,0,0,9.62,1.4l.57-1.34a38.49,38.49,0,0,0-7.62-6ZM12.16,83.23l.29-1.79h0a2.36,2.36,0,0,1,2.64-2.08,2.12,2.12,0,0,1,1.31.77A2.93,2.93,0,0,1,19.22,79a3.19,3.19,0,0,1,2.51,3.84l-.31,1.87Zm4.76-.72,3.37.55.07-.41A1.77,1.77,0,0,0,19,80.49a1.79,1.79,0,0,0-2,1.6A3.19,3.19,0,0,0,16.92,82.51ZM13.78,82l1.72.28a1.86,1.86,0,0,0,.07-.34.89.89,0,1,0-1.74-.28ZM20,190.11l1.3-.47L20.35,187l2.6-1L24,189l1.32-.48-1.58-4.33-8.82,3.22,1.58,4.33,1.31-.47-1.08-2.95,2.29-.84ZM15.56,111v37h2v-.5h.21v-37H15.69V111ZM44.44,215.6l.9-1.07-3.45-2.89-6,7.19,1.13.95,2.46-2.93,2.06,1.72.89-1.06-2.06-1.73,1.78-2.12ZM45.26,226l1.24.79,5.07-7.9-1.25-.8Zm15.38-2.36c-2.3-1.07-4.73.48-5.7,2.57s-.57,4.94,1.73,6a3.66,3.66,0,0,0,2.71.16L59,231a2.23,2.23,0,0,1-1.74,0c-1.31-.61-1.74-2.45-1-4.12s2.46-2.54,3.78-1.93a2.3,2.3,0,0,1,1.15,1.31l1.3-.59A3.65,3.65,0,0,0,60.64,223.65Zm-30.56-26-4,2.37a24.12,24.12,0,0,0,2.55-4.79l-.76-1.27-8.06,4.8.75,1.27,5.89-3.51A18.84,18.84,0,0,1,22,202.43l.76,1.27,8.06-4.8Zm6.38,10.65,1.06-.92-3-3.47-7.08,6.16,3,3.47,1-.91-2.06-2.36,1.84-1.6,1.83,2.1,1-.91-1.82-2.1,2.09-1.82ZM107.33,179a3,3,0,0,1-2-.75l-.16-.12L93.57,166.52,81.92,178.16a3,3,0,0,1-1.45.79,3.14,3.14,0,0,1-.67.08,3,3,0,0,1-2-.75l-.16-.12h0L41.9,142.38a3,3,0,0,1-.3-3.87,1.89,1.89,0,0,1,.09-.21L77.21,78l.09-.12a2.48,2.48,0,0,1,.19-.26,1.9,1.9,0,0,1,.19-.21,2.09,2.09,0,0,1,.22-.2,1.44,1.44,0,0,1,.25-.18.94.94,0,0,1,.12-.09l.12-.06.28-.13.27-.1.28-.06.29,0h.58l.28,0,.29.07a1.25,1.25,0,0,1,.25.09,2,2,0,0,1,.3.14.27.27,0,0,1,.11,0l.12.08.26.19.21.2a1.29,1.29,0,0,1,.19.21,2.56,2.56,0,0,1,.2.26s.06.08.08.12L93.56,97l11.18-19s.06-.08.08-.12l.2-.27.19-.2a2.09,2.09,0,0,1,.22-.2,1.44,1.44,0,0,1,.25-.18.94.94,0,0,1,.12-.09l.12-.06.28-.13.28-.1.26-.06.3,0h.58l.28,0,.28.06.27.1a1.92,1.92,0,0,1,.29.14.34.34,0,0,1,.11,0L109,77l.26.19.21.2a1.29,1.29,0,0,1,.19.21,2.56,2.56,0,0,1,.2.26s.06.08.08.12l35.77,60.76a1.63,1.63,0,0,1,.09.19c0,.1.1.19.14.29s.05.18.08.28a2.8,2.8,0,0,1,.06.28,1.53,1.53,0,0,1,0,.3,2.53,2.53,0,0,1,0,.28,1.5,1.5,0,0,1,0,.29,2.7,2.7,0,0,1,0,.28,2.76,2.76,0,0,1-.08.27,2.31,2.31,0,0,1-.1.28c0,.09-.09.18-.14.27s-.09.15-.14.23l-.22.26-.12.15-35.77,35.75a3.13,3.13,0,0,1-2.12.87Zm-18-16.76L69.43,142.38a3,3,0,0,1-.3-3.87,1.89,1.89,0,0,1,.09-.21l20.86-35.41L79.8,85.43l-32,54.35,32,32Zm-14-22.49L93.57,158l18.24-18.22-18.25-31Zm22.5,22.5,9.52,9.51,32-32-32-54.38L97,102.9l21.12,35.86c0,.06,0,.13.08.19s.1.19.14.29.05.18.08.28a2.8,2.8,0,0,1,.06.28,1.53,1.53,0,0,1,0,.3,1.29,1.29,0,0,1,0,.28c0,.09,0,.19,0,.29s0,.19-.05.28a2.76,2.76,0,0,1-.08.27,2.31,2.31,0,0,1-.1.28c0,.09-.09.18-.14.27s-.09.15-.14.23a2.75,2.75,0,0,1-.22.26,1.58,1.58,0,0,1-.12.15Z"/></g></g></svg>