<svg xmlns="http://www.w3.org/2000/svg" xmlns:xlink="http://www.w3.org/1999/xlink" viewBox="0 0 187.12 258"><defs><style>.cls-1{fill:url(#Gradiente_sem_nome_196);}.cls-2{fill:#7baf3f;}.cls-3{fill:#303c7a;}</style><linearGradient id="Gradiente_sem_nome_196" x1="7.97" y1="214.6" x2="179.16" y2="43.41" gradientUnits="userSpaceOnUse"><stop offset="0" stop-color="#c4a56e"/><stop offset="0.21" stop-color="#a2790d"/><stop offset="0.38" stop-color="#ebd197"/><stop offset="0.54" stop-color="#ebd197"/><stop offset="0.74" stop-color="#bb9b49"/><stop offset="1" stop-color="#c4a56e"/></linearGradient></defs><title>logo_beneficioexclusivo</title><g id="Camada_2" data-name="Camada 2"><g id="Camada_1-2" data-name="Camada 1"><path class="cls-1" d="M12.45,81.44l-.29,1.79h0l9.26,1.51.31-1.87A3.19,3.19,0,0,0,19.22,79a2.93,2.93,0,0,0-2.82,1.1,2.12,2.12,0,0,0-1.31-.77,2.36,2.36,0,0,0-2.64,2.08Zm3.05.84L13.78,82h0l.05-.34a.89.89,0,1,1,1.74.28,1.86,1.86,0,0,1-.07.34Zm4.79.78-3.37-.55h0a3.19,3.19,0,0,1,0-.42,1.79,1.79,0,0,1,2-1.6,1.77,1.77,0,0,1,1.37,2.16Zm3.5-9.25,1.58-4.33L24.07,69,23,72l-2.29-.84,1-2.62L20.35,68l-1,2.62-2.61-1,1.08-2.94-1.32-.48L15,70.59ZM22,55.59h0L26,58a24.07,24.07,0,0,0-5.43,0l-.76,1.27,8.07,4.8.75-1.27L22.77,59.3a19,19,0,0,1,7.33,1.09l.76-1.27-8.07-4.8Zm12.48-1.46,3-3.47-1-.91-2.06,2.36-1.84-1.6,1.83-2.1-1-.91-1.83,2.1-2.09-1.82,2.06-2.36-1.06-.92-3,3.47Zm7.39-7.74,1.13-1-2.46-2.93,2.06-1.73-.89-1.06-2.06,1.72-1.78-2.12,2.32-2-.9-1.07-3.45,2.89Zm4.61-15.17h0l-1.25.8,5.07,7.9,1.24-.79Zm10.16-5.41h0c-2.3,1.06-2.69,3.92-1.72,6s3.39,3.62,5.69,2.56a3.61,3.61,0,0,0,1.88-2l-1.3-.59a2.29,2.29,0,0,1-1.16,1.3c-1.31.61-3-.26-3.77-1.92s-.35-3.53,1-4.13A2.22,2.22,0,0,1,59,27l.39-1.38a3.64,3.64,0,0,0-2.72.15Zm10.6-4h0l-1.41.44,2.8,9,1.41-.44Zm11.24-2.55h0c-2.5.41-3.63,3.06-3.25,5.33s2.3,4.4,4.8,4,3.63-3.06,3.25-5.32-2.31-4.41-4.8-4Zm.22,1.36c1.43-.23,2.82,1,3.12,2.87s-.59,3.48-2,3.72S77,26.14,76.72,24.33,77.32,20.84,78.74,20.6Zm19.78,6.86,4.59.41.12-1.38-3.12-.28.21-2.43,2.78.25.12-1.39-2.77-.24.24-2.76,3.12.27.12-1.39-4.59-.41Zm12.82-7.79h0l-.42,1.82a2.57,2.57,0,0,0,.44,2.11A2.59,2.59,0,0,0,110,25.31l-.81,3.51,1.44.33.81-3.51a1.26,1.26,0,1,1,2.45.56l-.81,3.51,1.44.33.81-3.5a2.59,2.59,0,0,0-.44-2.12,2.57,2.57,0,0,0,1.32-1.7l.42-1.82-1.44-.33-.42,1.82a1.26,1.26,0,1,1-2.45-.57l.42-1.82Zm16.32,4.94h0c-2.35-.94-4.69.73-5.55,2.87s-.31,5,2,5.9a3.7,3.7,0,0,0,2.72,0L126.4,32a2.19,2.19,0,0,1-1.74.05c-1.34-.54-1.86-2.35-1.18-4.06s2.32-2.67,3.66-2.13a2.24,2.24,0,0,1,1.22,1.25l1.27-.66a3.64,3.64,0,0,0-2-1.88Zm9,4.28h0L131.89,37l3.81,2.25.71-1.2-2.55-1.5,4.06-6.89Zm10.24,15.3h0l4.2-5.13L150,38.13l-4.2,5.12a1.41,1.41,0,0,1-2.18-1.79l4.2-5.12-1.14-.94-4.2,5.13a2.89,2.89,0,0,0,4.46,3.66Zm7.68,8.28h0c2.36-2.06,0-4.44,1.31-5.56A.84.84,0,0,1,157.15,48l1.51.1a2.35,2.35,0,0,0-.57-2,2.24,2.24,0,0,0-3.19-.27c-2.2,1.91.48,4-1.3,5.53a1.28,1.28,0,0,1-1.76-.17,1.16,1.16,0,0,1-.27-1.08L150.11,50a2.75,2.75,0,0,0,.68,2.1,2.68,2.68,0,0,0,3.78.37Zm10.36,2.79h0l-.8-1.24-7.89,5.08.8,1.24Zm5.67,11.23a33.73,33.73,0,0,1-7.54,1.31,34,34,0,0,1,6.14-4.56l-.59-1.36a39.46,39.46,0,0,0-7.62,6l.58,1.34a38.48,38.48,0,0,0,9.61-1.4Zm3.63,12.62h0c-.47-2.48-3.14-3.56-5.4-3.14s-4.35,2.39-3.89,4.88,3.13,3.57,5.39,3.15S174.69,81.6,174.23,79.11Zm-1.37.26c.27,1.42-1,2.84-2.81,3.18s-3.48-.53-3.75-2,1-2.84,2.8-3.18S172.6,78,172.86,79.37ZM21.69,175.06l-.3-1.8h0l-9.26,1.51.3,1.87a3.2,3.2,0,0,0,3.6,2.85,2.93,2.93,0,0,0,2.32-1.93,2.18,2.18,0,0,0,1.49.3,2.35,2.35,0,0,0,1.85-2.8Zm-3.17.16,1.73-.28h0l.05.35a.9.9,0,0,1-.7,1.12.93.93,0,0,1-1-.84C18.55,175.51,18.52,175.29,18.52,175.22Zm-4.79.79,3.38-.56h0c0,.11.08.3.1.42A1.8,1.8,0,0,1,15.79,178a1.78,1.78,0,0,1-2-1.62Zm1.21,11.41,1.58,4.33,1.31-.47-1.08-2.95,2.29-.84,1,2.62,1.3-.47L20.35,187l2.6-1L24,189l1.32-.48-1.58-4.33Zm15.14,10.21h0l-4,2.37a24.12,24.12,0,0,0,2.55-4.79l-.76-1.27-8.06,4.8.75,1.27,5.89-3.51A18.84,18.84,0,0,1,22,202.43l.76,1.27,8.06-4.8Zm-2.67,12.42,3,3.47,1-.91-2.06-2.36,1.84-1.6,1.83,2.1,1-.91-1.82-2.1,2.09-1.82,2.05,2.36,1.06-.92-3-3.47Zm8.45,8.78,1.13.95,2.46-2.93,2.06,1.72.89-1.06-2.06-1.73,1.78-2.12,2.32,1.94.9-1.07-3.45-2.89Zm15.71.07h0l-1.25-.8L45.26,226l1.24.79Zm9.07,4.75h0c-2.3-1.07-4.73.48-5.7,2.57s-.57,4.94,1.73,6a3.66,3.66,0,0,0,2.71.16L59,231a2.23,2.23,0,0,1-1.74,0c-1.31-.61-1.74-2.45-1-4.11s2.46-2.55,3.78-1.94a2.3,2.3,0,0,1,1.15,1.31l1.3-.59a3.65,3.65,0,0,0-1.87-2Zm9.43,3.63h0l-1.41-.44-2.79,9,1.4.44Zm10,2.2h0c-2.5-.42-4.43,1.72-4.81,4s.75,4.91,3.25,5.32,4.43-1.72,4.8-4-.75-4.92-3.24-5.33Zm-.23,1.36c1.42.24,2.32,1.9,2,3.73s-1.69,3.09-3.12,2.86-2.33-1.9-2-3.72S78.41,230.61,79.84,230.84Zm19.5,9.08,4.6-.41-.13-1.38-3.12.28-.21-2.43,2.78-.25-.13-1.38-2.77.25-.25-2.77,3.13-.27-.13-1.4-4.59.41Zm9.9-10.71h0l.42,1.82a2.56,2.56,0,0,0,1.32,1.71,2.53,2.53,0,0,0-.44,2.11l.81,3.51,1.44-.33-.81-3.51a1.26,1.26,0,1,1,2.45-.57l.81,3.51,1.44-.33-.81-3.51a2.57,2.57,0,0,0-1.32-1.7,2.61,2.61,0,0,0,.44-2.11l-.42-1.82-1.44.33.42,1.82a1.26,1.26,0,1,1-2.45.56l-.42-1.82Zm14.92-4.56h0c-2.35.94-2.89,3.77-2,5.91s3.19,3.8,5.54,2.86a3.62,3.62,0,0,0,2-1.86l-1.27-.66a2.25,2.25,0,0,1-1.23,1.23c-1.34.54-3-.41-3.65-2.12s-.17-3.54,1.17-4.07a2.27,2.27,0,0,1,1.75.06l.46-1.35a3.6,3.6,0,0,0-2.72,0Zm7.74-3.6h0l4.77,8.09,3.81-2.25-.7-1.2-2.54,1.5-4.07-6.89Zm17.46-4.22h0l-4.2-5.13-1.14.94,4.2,5.13a1.41,1.41,0,1,1-2.18,1.78l-4.2-5.12-1.14.94,4.2,5.12a2.89,2.89,0,0,0,4.46-3.66Zm8.42-8.5h0c-2.36-2.06-4.4.58-5.68-.54a.85.85,0,0,1-.06-1.17.83.83,0,0,1,.92-.23l-.1-1.51a2.36,2.36,0,0,0-1.87.83,2.25,2.25,0,0,0,.17,3.21c2.19,1.91,3.87-1,5.65.53a1.27,1.27,0,0,1,.08,1.76,1.2,1.2,0,0,1-1,.42l.09,1.45a2.73,2.73,0,0,0,2-1A2.67,2.67,0,0,0,157.78,208.33Zm-.71-10.65h0l-.8,1.24,7.89,5.08.8-1.24Zm4.93-9.87a34.08,34.08,0,0,1,6.14,4.58,35.67,35.67,0,0,1-7.54-1.32l-.58,1.35a39,39,0,0,0,9.62,1.4l.57-1.34a38.49,38.49,0,0,0-7.62-6Zm3-10.65h0c-.46,2.48,1.63,4.45,3.9,4.88s4.92-.66,5.39-3.15-1.64-4.46-3.89-4.88S165.43,174.67,165,177.16Zm1.36.25c.27-1.42,1.95-2.29,3.77-1.95s3.06,1.75,2.79,3.18-1.94,2.28-3.75,2-3.07-1.76-2.81-3.18ZM15.69,147.5v-37h2.08v37Zm155.75,0v-37h2.08v37ZM30.55,21.58A85,85,0,0,0,9.91,45.47,76.28,76.28,0,0,0,0,75.35a.81.81,0,0,0,0,.16v107a1,1,0,0,0,0,.17,76.28,76.28,0,0,0,9.9,29.87,85,85,0,0,0,20.64,23.89Q57.4,258,93.56,258t63-21.58a85.21,85.21,0,0,0,20.65-23.89,76.42,76.42,0,0,0,9.89-29.88.86.86,0,0,0,0-.16v-107a.86.86,0,0,0,0-.16,76.42,76.42,0,0,0-9.89-29.88,85.21,85.21,0,0,0-20.65-23.89Q129.74,0,93.56,0t-63,21.58Zm-28.46,54a74.25,74.25,0,0,1,9.62-29A82.94,82.94,0,0,1,31.86,23.21Q58.13,2.09,93.56,2.09t61.7,21.12a82.94,82.94,0,0,1,20.15,23.31,74.44,74.44,0,0,1,9.63,29V182.46a74.44,74.44,0,0,1-9.63,29,82.94,82.94,0,0,1-20.15,23.31Q129,255.91,93.56,255.91t-61.7-21.12a82.94,82.94,0,0,1-20.15-23.31,74.26,74.26,0,0,1-9.62-29ZM15.56,111h2v37h-2Zm156,0h2v37h-2Z"/><path class="cls-2" d="M79.88,179a3,3,0,0,1-2.12-5.12l35.78-35.74a3,3,0,0,1,4.24,4.24L82,178.16A3,3,0,0,1,79.88,179Z"/><path class="cls-3" d="M71.89,142.82a3,3,0,0,1-2.58-4.52L104.83,78A3,3,0,0,1,110,81l-35.52,60.3A3,3,0,0,1,71.89,142.82Z"/><path class="cls-3" d="M143.19,143.29a3,3,0,0,1-2.59-1.48L104.83,81A3,3,0,0,1,110,78l35.77,60.76a3,3,0,0,1-2.58,4.53Z"/><path class="cls-3" d="M107.41,179a3,3,0,0,1-2.12-.87L69.51,142.38a3,3,0,0,1,4.25-4.24l35.77,35.77a3,3,0,0,1-2.12,5.12Z"/><path class="cls-3" d="M107.41,179a3,3,0,0,1-2.12-.88,3,3,0,0,1,0-4.24l35.77-35.74a3,3,0,1,1,4.24,4.24l-35.77,35.75A3,3,0,0,1,107.41,179Z"/><path class="cls-2" d="M44.36,142.82a3,3,0,0,1-2.58-4.52L77.3,78a3,3,0,0,1,5.17,3L47,141.34A3,3,0,0,1,44.36,142.82Z"/><path class="cls-2" d="M115.66,143.29a3,3,0,0,1-2.59-1.48L77.3,81a3,3,0,0,1,5.17-3l35.77,60.76a3,3,0,0,1-2.58,4.53Z"/><path class="cls-2" d="M79.88,179a3,3,0,0,1-2.12-.87L42,142.38a3,3,0,0,1,4.24-4.24L82,173.91A3,3,0,0,1,79.88,179Z"/></g></g></svg>